<svg id="Layer_1" data-name="Layer 1" xmlns="http://www.w3.org/2000/svg" viewBox="0 0 172.45 138.25"><defs><style>.cls-1{fill:#474b5c;}.cls-2{fill:#bfe8fb;}.cls-3{fill:#ffcc2d;}</style></defs><title>LogoDuongBan</title><path class="cls-1" d="M69.43,28.32c-9.7.95-18.41,5.15-26,11.1-.09.8-.13,1.61-.18,2.42,11.08-3.74,23.73-3,34.82-.29,3,.73,6,1.62,9,2.6,8.19-3.12,16.74-4.82,24.65-1.75,6.4,2.48,11.9,6.33,17.37,10.53a43,43,0,0,0,.7-5.71c-2.44-.72-4.84-1.6-7.21-2.56-5.85-2.38-11.56-5.13-17.16-8.06-9.56-5-20.25-8.51-31.13-8.51-1.59,0-3.18.07-4.78.23"/><path class="cls-1" d="M91.51,45C83.13,47.42,76,52.8,68,56.25a68.48,68.48,0,0,1-12.6,4.34,59.79,59.79,0,0,1-8.79.89A42.81,42.81,0,0,0,49,66.2c18.87-11.3,41.93-10,62.6-5.33a117.16,117.16,0,0,1,12,3.25l1.27.44a44,44,0,0,0,3.22-8c-5.09-3.27-14.78-8.73-20.27-10.4A37.59,37.59,0,0,0,97,44.24a19.5,19.5,0,0,0-5.48.74"/><path class="cls-1" d="M64.52,66a40.29,40.29,0,0,1,12.74.3c5.87,1.08,10.92,3.39,16.44,5.4a85.86,85.86,0,0,0,21.16,5.14l.28,0a43.13,43.13,0,0,0,8.51-10.22c-1.58-.5-3.16-1-4.76-1.4a105.24,105.24,0,0,0-26.95-3.7A85.19,85.19,0,0,0,64.52,66"/><path class="cls-1" d="M53.84,41.83a56.65,56.65,0,0,0-10.75,2.71A43.26,43.26,0,0,0,45.77,59.3,43.15,43.15,0,0,0,56,57.79a93.77,93.77,0,0,0,12.5-5C72.12,51,76.11,49,80.26,47c-7.41-2.07-15-5.5-22.66-5.5a22.69,22.69,0,0,0-3.76.3"/><path class="cls-1" d="M52.93,71.67l-.11.09a43.29,43.29,0,0,0,60.61,6.58c-8.49.42-14-.18-21.9-3.3-7-2.79-15.1-8-24.55-8.15h-.3a23.89,23.89,0,0,0-13.75,4.78"/><path class="cls-2" d="M67.28,23.05c-6.43,1.66-13.22,2.95-19.9,2.6a43.28,43.28,0,0,0-3.56,10.94A69,69,0,0,1,69,25.76c17.21-3.38,25.06,2.3,36.08,8.12,5.26,2.78,10.62,5.45,16.11,7.77,2.47,1.05,5.86,2.3,8.66,3.18,0-.15,0-.29,0-.44A43.15,43.15,0,0,0,123,21a63,63,0,0,0-19.31-5.93A32.07,32.07,0,0,0,99,14.74c-11,0-21.14,5.56-31.74,8.31"/><path class="cls-3" d="M61.29,9.1A39.63,39.63,0,0,1,75.93,4.47c11.41-1,23,3.34,33,8.34L111.18,14c1.73.44,3.47.93,5.22,1.52,1.13.38,2.31.8,3.49,1.25A43.3,43.3,0,0,0,61.29,9.1"/><path class="cls-3" d="M76.46,6A36.19,36.19,0,0,0,55,14.64a43.82,43.82,0,0,0-6.27,8.47c6.31.09,9.65.66,15.68-1.05,4.93-1.4,12.27-5.92,17.14-7.44a52.34,52.34,0,0,1,24.38-1.74c-8.63-4-18.07-7-27.43-7-.66,0-1.33,0-2,0"/><path class="cls-1" d="M20.72,102.27a3.47,3.47,0,0,0-2.45,2.2q-4.47,9.06-7.13,15.16Q8.59,113.72,4,104.47a3.48,3.48,0,0,0-2.44-2.2v0q2.84.12,5.55,0l0,0a1,1,0,0,0-.93,1,3.09,3.09,0,0,0,.31,1.17l5,11.13q1.85-4.18,4.95-11.13a2.88,2.88,0,0,0,.3-1.17,1,1,0,0,0-.92-1l0,0c1.57.07,3.17.07,4.81,0C20.71,102.25,20.72,102.25,20.72,102.27Z"/><path class="cls-1" d="M32.72,118.85s0,0,0,0c-1.85-.06-3.68-.06-5.5,0-.05,0-.07,0-.07,0,1.14-.2,1.72-1,1.77-2.39q.16-4.83,0-11.93a2,2,0,0,0-1.66-2.24c.91,0,1.81,0,2.71,0s1.79,0,2.68,0t0,0A2,2,0,0,0,31,104.53q-.15,7.35,0,11.93A2.2,2.2,0,0,0,32.72,118.85Z"/><path class="cls-1" d="M56.94,102.27a1.72,1.72,0,0,0-1.19.87,3.58,3.58,0,0,0-.46,1.75q-.2,9.61-.08,14.89-6.09-7.12-12.3-13.36c-.06,2.13,0,5.36,0,9.71a3.43,3.43,0,0,0,.44,1.78,1.73,1.73,0,0,0,1.23.94h0c-.22,0-.93,0-2.13,0s-2.16,0-2.54,0h-.1q1.61-.34,1.65-2.64.15-6.72,0-14.89,2.48,2.79,6.13,6.68l6.28,6.63q.06-4.63,0-9.66a3.75,3.75,0,0,0-.47-1.82,1.67,1.67,0,0,0-1.23-.88s0,0,0,0c.22,0,.94,0,2.14,0s2.12,0,2.5,0C56.9,102.25,56.94,102.25,56.94,102.27Z"/><path class="cls-1" d="M80.27,118.83l-.08,0c-1.85,0-3.68,0-5.5,0,0,0,0,0-.06,0a2.2,2.2,0,0,0,1.78-2.39c0-1.91.09-3.82.09-5.75H67.26c0,1.93,0,3.84.08,5.75a2.23,2.23,0,0,0,1.79,2.39.08.08,0,0,1-.07,0c-.84,0-2.67,0-5.5,0,0,0-.06,0-.06,0a2.17,2.17,0,0,0,1.76-2.39q.17-4.77,0-12a2,2,0,0,0-1.68-2.22v0c.91,0,1.81.06,2.71.06s1.79,0,2.69-.06c0,0,0,0,0,0a2,2,0,0,0-1.68,2.22l-.08,5.08H76.5c0-.22,0-1.91-.09-5.08a2,2,0,0,0-1.67-2.22s0,0,0,0q1.33.06,2.67.06c.89,0,1.79,0,2.69-.06,0,0,0,0,0,0a2,2,0,0,0-1.67,2.22q-.15,7.37,0,12A2.19,2.19,0,0,0,80.27,118.83Z"/><path class="cls-1" d="M103.76,110.54a8.28,8.28,0,0,1-2.49,6,8.37,8.37,0,0,1-12,0,8.62,8.62,0,0,1,0-12.1,8.38,8.38,0,0,1,12,0A8.26,8.26,0,0,1,103.76,110.54Zm-2.38-.75a8.52,8.52,0,0,0-2.19-4.88,5.68,5.68,0,0,0-4.26-2,5.12,5.12,0,0,0-4.36,2.39,8.28,8.28,0,0,0-1.47,4.9,8.61,8.61,0,0,0,1.79,5.33,5.83,5.83,0,0,0,4.81,2.54,5.1,5.1,0,0,0,4.32-2.21,8,8,0,0,0,1.45-4.78A9.76,9.76,0,0,0,101.38,109.79Z"/><path class="cls-1" d="M131.94,118.81s0,0-.06,0c-.35,0-1.34,0-3,0s-2.52,0-2.69,0c0,0,0,0,0,0a1.76,1.76,0,0,0,1.26-.9,3.45,3.45,0,0,0,.41-1.74c0-2.24-.08-5.19-.26-8.84q-3.22,6-6.23,11.9-2-3.9-6.38-11.88c0,.24,0,1.76-.16,4.57q-.1,2.77-.06,4.56c0,1.4.56,2.18,1.57,2.33,0,0,0,0-.1,0a46.81,46.81,0,0,0-4.7,0s-.05,0-.05,0a1.83,1.83,0,0,0,1.32-.9,3.22,3.22,0,0,0,.49-1.54q.57-7.17.75-15.09c1.82,3.45,3.08,5.81,3.78,7.1q2.08,3.9,3.93,7.09,3.54-6.1,7.58-14.08.22,8.58.77,15C130.24,117.78,130.85,118.59,131.94,118.81Z"/><path class="cls-1" d="M151.91,114.15c.06,0,0,.48-.29,1.3s-.44,1.4-.57,1.71a6.35,6.35,0,0,1-.63,1.23,1.27,1.27,0,0,1-1,.44H138.27s-.06,0-.06,0a2.15,2.15,0,0,0,1.76-2.37q.17-4.57,0-12a2,2,0,0,0-1.68-2.22v0h10c1.16,0,1.84,0,2,0a24,24,0,0,0-.06,3.72.08.08,0,0,1,0,0,2.37,2.37,0,0,0-1.2-1.93,4,4,0,0,0-2.14-.71c-1.78,0-3.3,0-4.58,0-.21,0-.31.08-.31.2l0,5.9h5.35a3.49,3.49,0,0,0,2-.47,19.08,19.08,0,0,0-.07,3.44s0,.06,0,.06a1.77,1.77,0,0,0-.88-1.49,2.84,2.84,0,0,0-1.47-.42c-2,0-3.62,0-5,0l0,5.88c0,.83.37,1.28,1.1,1.32a17.34,17.34,0,0,0,4.33-.16C150.05,117.07,151.53,115.92,151.91,114.15Z"/><path class="cls-1" d="M164.21,119a10.74,10.74,0,0,1-3.37-.67,2,2,0,0,1-1.38-1.52c-.1-.49-.21-1.89-.34-4.21,0-.2,0-.31.09-.32a4.57,4.57,0,0,0,.69,2.46,5.75,5.75,0,0,0,1.78,2,5.9,5.9,0,0,0,3.47,1.07,4.23,4.23,0,0,0,2.47-.69,2.85,2.85,0,0,0,1.29-2.18,2.36,2.36,0,0,0,0-.37,2.41,2.41,0,0,0-1.36-2.11,19,19,0,0,0-3-1.28,11.33,11.33,0,0,1-3.06-1.51,3.8,3.8,0,0,1-1.5-3.15,3.9,3.9,0,0,1,.62-2.14,4.62,4.62,0,0,1,2.16-1.71,7.69,7.69,0,0,1,2.92-.6,19.54,19.54,0,0,1,5,.64c0,1.25-.09,2.64-.15,4.16,0,.05,0,.07,0,.07a3.45,3.45,0,0,0-1.63-2.86,5.27,5.27,0,0,0-3.13-1,4.75,4.75,0,0,0-2.15.49A3,3,0,0,0,162.1,105a2.39,2.39,0,0,0-.18.92,2.44,2.44,0,0,0,.92,1.94,8.61,8.61,0,0,0,2.4,1.23c.92.32,1.85.65,2.77,1q2.87,1.22,2.87,3.56a4.76,4.76,0,0,1-2.2,3.94A7.13,7.13,0,0,1,164.21,119Z"/><path class="cls-1" d="M33.93,129.92v0a4.27,4.27,0,0,1,1.34-3.18,4.92,4.92,0,0,1,6.7,0,4.24,4.24,0,0,1,1.32,3.16v0A4.24,4.24,0,0,1,42,133.06a4.91,4.91,0,0,1-6.7,0A4.21,4.21,0,0,1,33.93,129.92Zm6.94,0v0a2.42,2.42,0,0,0-.63-1.68,2.2,2.2,0,0,0-1.65-.7,2.08,2.08,0,0,0-1.64.69,2.34,2.34,0,0,0-.6,1.66v0a2.4,2.4,0,0,0,.63,1.68,2.13,2.13,0,0,0,1.64.71,2.1,2.1,0,0,0,1.65-.69A2.39,2.39,0,0,0,40.87,129.92Z"/><path class="cls-1" d="M46.26,129.92v0a4.44,4.44,0,0,1,4.54-4.5,4.41,4.41,0,0,1,3.45,1.45l-1.5,1.62a2.7,2.7,0,0,0-2-.95,1.88,1.88,0,0,0-1.5.69,2.47,2.47,0,0,0-.6,1.66v0a2.47,2.47,0,0,0,.6,1.7,2,2,0,0,0,1.6.69,2.86,2.86,0,0,0,2-.92l1.44,1.46a4.58,4.58,0,0,1-3.54,1.58,4.33,4.33,0,0,1-3.22-1.31A4.28,4.28,0,0,1,46.26,129.92Z"/><path class="cls-1" d="M56.85,129.92v0a4.55,4.55,0,0,1,1.2-3.18,4,4,0,0,1,3.08-1.32,3.87,3.87,0,0,1,3.2,1.42,5.17,5.17,0,0,1,1,3.28c0,.13,0,.34,0,.64h-6a2,2,0,0,0,2.11,1.7,3,3,0,0,0,2.1-.89l1.41,1.24a4.28,4.28,0,0,1-3.54,1.62,4.44,4.44,0,0,1-3.23-1.24A4.36,4.36,0,0,1,56.85,129.92Zm6.1-.73c-.16-1.23-.77-1.84-1.82-1.84s-1.66.61-1.87,1.84Z"/><path class="cls-1" d="M68.27,131.71v0a2.43,2.43,0,0,1,1-2.09,4.21,4.21,0,0,1,2.52-.67,6.41,6.41,0,0,1,2.12.35v-.14c0-1-.62-1.59-1.86-1.59a7.07,7.07,0,0,0-2.39.47L69,126.14a8.16,8.16,0,0,1,3.36-.7,4,4,0,0,1,2.92,1,3.74,3.74,0,0,1,.94,2.76v5H73.85v-.93a3.35,3.35,0,0,1-2.61,1.1,3.19,3.19,0,0,1-2.1-.68A2.45,2.45,0,0,1,68.27,131.71Zm5.63-.57v-.43a3.8,3.8,0,0,0-1.57-.32c-1.13,0-1.69.4-1.69,1.19v0c0,.7.45,1,1.34,1a2.21,2.21,0,0,0,1.39-.42A1.38,1.38,0,0,0,73.9,131.14Z"/><path class="cls-1" d="M80,125.54h2.46v1.23a3.16,3.16,0,0,1,2.53-1.39,2.8,2.8,0,0,1,2.17.86,3.38,3.38,0,0,1,.77,2.35v5.6H85.43v-4.82c0-1.18-.51-1.76-1.49-1.76s-1.53.58-1.53,1.76v4.82H80Z"/><path class="cls-1" d="M98.08,125.54h2.46v1.24a3.2,3.2,0,0,1,2.69-1.4,3.67,3.67,0,0,1,2.73,1.15,4.58,4.58,0,0,1,1.21,3.32v0a4.67,4.67,0,0,1-1.19,3.33,3.73,3.73,0,0,1-2.75,1.15,3.37,3.37,0,0,1-2.69-1.3v3.72H98.08Zm6.64,4.34v0a2.43,2.43,0,0,0-.63-1.72,2,2,0,0,0-1.49-.67,1.93,1.93,0,0,0-1.48.67,2.46,2.46,0,0,0-.61,1.72v0a2.47,2.47,0,0,0,.61,1.73,1.92,1.92,0,0,0,1.48.66,2,2,0,0,0,1.49-.64A2.47,2.47,0,0,0,104.72,129.88Z"/><path class="cls-1" d="M110.08,131.71v0a2.41,2.41,0,0,1,1-2.09,4.17,4.17,0,0,1,2.52-.67,6.35,6.35,0,0,1,2.11.35v-.14c0-1-.61-1.59-1.86-1.59a7.07,7.07,0,0,0-2.39.47l-.61-1.87a8.16,8.16,0,0,1,3.36-.7,4,4,0,0,1,2.92,1,3.74,3.74,0,0,1,.94,2.76v5h-2.38v-.93a3.35,3.35,0,0,1-2.61,1.1,3.19,3.19,0,0,1-2.1-.68A2.45,2.45,0,0,1,110.08,131.71Zm5.63-.57v-.43a3.75,3.75,0,0,0-1.56-.32c-1.13,0-1.7.4-1.7,1.19v0c0,.7.45,1,1.34,1a2.19,2.19,0,0,0,1.39-.42A1.35,1.35,0,0,0,115.71,131.14Z"/><path class="cls-1" d="M121.77,125.54h2.45v1.75a2.72,2.72,0,0,1,2.76-1.91V128h-.13c-1.76,0-2.63,1-2.63,3v3.19h-2.45Z"/><path class="cls-1" d="M130.13,122.41h2.45v6.28l2.88-3.15h2.93L135.1,129l3.41,5.24h-2.84l-2.22-3.55-.87.92v2.63h-2.45Z"/></svg>