<?xml version="1.0" encoding="utf-8"?>
<!-- Generator: Adobe Illustrator 23.0.1, SVG Export Plug-In . SVG Version: 6.00 Build 0)  -->
<svg version="1.1" id="Layer_1" xmlns="http://www.w3.org/2000/svg" xmlns:xlink="http://www.w3.org/1999/xlink" x="0px" y="0px"
	 viewBox="0 0 315.2 85.3" style="enable-background:new 0 0 315.2 85.3;" xml:space="preserve">
<style type="text/css">
	.st0{fill:#474B5C;}
	.st1{fill:#BFE8FB;}
	.st2{fill:#FFCC2D;}
</style>
<title>LogoDuongBan</title>
<path class="st0" d="M27.2,28.8c-8.6,0.8-16.4,4.6-23.2,9.9C4,39.4,4,40.1,3.9,40.8c9.9-3.3,21.1-2.7,31-0.3c2.7,0.7,5.3,1.4,8,2.3
	c7.3-2.8,14.9-4.3,22-1.6c5.7,2.2,10.6,5.6,15.5,9.4c0.3-1.7,0.5-3.4,0.6-5.1c-2.2-0.6-4.3-1.4-6.4-2.3c-5.2-2.1-10.3-4.6-15.3-7.2
	c-8.5-4.5-18-7.6-27.7-7.6C30.1,28.6,28.7,28.6,27.2,28.8"/>
<path class="st0" d="M46.9,43.6c-7.5,2.2-13.8,6.9-20.9,10c-3.6,1.7-7.4,2.9-11.2,3.9c-2.6,0.5-5.2,0.7-7.8,0.8
	c0.6,1.4,1.3,2.8,2.1,4.2c16.8-10.1,37.3-8.9,55.8-4.7c3.6,0.8,7.2,1.7,10.7,2.9l1.1,0.4c1.2-2.3,2.1-4.7,2.9-7.1
	c-4.5-2.9-13.2-7.8-18.1-9.3c-3.1-1-6.4-1.6-9.6-1.7C50.1,42.9,48.5,43.1,46.9,43.6"/>
<path class="st0" d="M22.9,62.3c3.8-0.5,7.6-0.4,11.3,0.3c5.2,1,9.7,3,14.6,4.8c6.1,2.3,12.4,3.9,18.8,4.6h0.2
	c3-2.6,5.5-5.7,7.6-9.1c-1.4-0.4-2.8-0.9-4.2-1.2c-7.8-2.1-15.9-3.2-24-3.3C39,58.3,30.7,59.7,22.9,62.3"/>
<path class="st0" d="M13.4,40.8c-3.3,0.5-6.5,1.3-9.6,2.4c0,4.5,0.8,8.9,2.4,13.1c3.1-0.1,6.1-0.5,9.1-1.3c3.8-1.2,7.5-2.7,11.1-4.5
	c3.2-1.6,6.8-3.4,10.5-5.2c-6.6-1.8-13.4-4.9-20.2-4.9C15.6,40.5,14.5,40.6,13.4,40.8"/>
<path class="st0" d="M12.5,67.4L12.5,67.4c13.2,16.5,37.3,19.1,53.9,5.9c-7.6,0.4-12.5-0.2-19.5-2.9c-6.2-2.5-13.4-7.1-21.9-7.3
	h-0.3C20.4,63.2,16.1,64.7,12.5,67.4"/>
<path class="st1" d="M25.3,24.1c-5.7,1.5-11.8,2.6-17.7,2.3c-1.5,3.1-2.6,6.4-3.2,9.7c6.8-4.7,14.4-8,22.4-9.6
	c15.3-3,22.3,2,32.1,7.2c4.7,2.5,9.5,4.9,14.3,6.9c2.2,0.9,5.2,2,7.7,2.8c0-0.1,0-0.3,0-0.4c0-7.4-2.1-14.6-6.1-20.8
	c-5.4-2.7-11.2-4.5-17.2-5.3c-1.4-0.2-2.8-0.3-4.2-0.3C43.8,16.7,34.7,21.6,25.3,24.1"/>
<path class="st2" d="M20,11.6c4-2.2,8.5-3.6,13-4.1c10.2-0.9,20.5,3,29.4,7.4l2,1.1c1.5,0.4,3.1,0.8,4.6,1.4c1,0.3,2.1,0.7,3.1,1.1
	C59.3,2.8,36.5-0.2,20,11.6"/>
<path class="st2" d="M33.5,8.9c-7,0.4-13.8,3.1-19.1,7.7c-2.2,2.3-4,4.8-5.6,7.5c5.6,0.1,8.6,0.6,14-0.9c4.4-1.2,10.9-5.3,15.3-6.6
	c7-2.2,14.5-2.8,21.7-1.5c-7.7-3.6-16.1-6.2-24.4-6.2c-0.6,0-1.2,0-1.8,0"/>
<path class="st1" d="M108.7,20.9c-1.5,0.4-2.8,1.5-3.3,3c-4,8.1-7.2,15-9.6,20.4c-2.3-5.3-5.5-12.1-9.6-20.4c-0.5-1.5-1.8-2.6-3.3-3
	l0,0c2.6,0.1,5,0.1,7.5,0l0,0c-0.7,0-1.3,0.6-1.3,1.3c0,0.5,0.2,1.1,0.4,1.6l6.7,15c1.7-3.8,3.9-8.8,6.7-15c0.2-0.5,0.4-1,0.4-1.6
	c0-0.7-0.5-1.3-1.2-1.3l0,0c2.1,0.1,4.3,0.1,6.5,0C108.7,20.9,108.7,20.9,108.7,20.9z"/>
<path class="st1" d="M124.9,43.2L124.9,43.2c-2.5-0.1-5-0.1-7.4,0c-0.1,0-0.1,0-0.1,0c1.5-0.3,2.3-1.3,2.4-3.2
	c0.1-4.3,0.1-9.7,0-16.1c0.2-1.4-0.8-2.8-2.2-3c1.2,0,2.4,0,3.7,0c1.2,0,2.4,0,3.6,0c0.8,0,0.8,0,0,0c-1.4,0.2-2.4,1.6-2.2,3
	c-0.1,6.6-0.1,12,0,16.1C122.4,41.5,123.4,42.9,124.9,43.2z"/>
<path class="st1" d="M157.5,20.9c-0.7,0.1-1.3,0.6-1.6,1.2c-0.4,0.7-0.6,1.5-0.6,2.4c-0.2,8.6-0.2,15.3-0.1,20.1
	c-5.5-6.4-11-12.4-16.6-18c-0.1,2.9,0,7.2,0,13.1c0,0.8,0.2,1.7,0.6,2.4c0.3,0.7,0.9,1.1,1.7,1.3l0,0c-0.3,0-1.3,0-2.9,0
	s-2.9,0-3.4,0h-0.1c1.4-0.3,2.2-1.5,2.2-3.6c0.1-6,0.1-12.7,0-20.1c2.2,2.5,5,5.5,8.3,9l8.5,8.9c0.1-4.2,0.1-8.5,0-13
	c0-0.9-0.2-1.7-0.6-2.5c-0.3-0.6-0.9-1.1-1.7-1.2l0,0c0.3,0,1.3,0,2.9,0s2.9,0,3.4,0C157.5,20.9,157.5,20.9,157.5,20.9z"/>
<path class="st1" d="M189,43.2h-0.1c-2.5,0-5,0-7.4,0c0,0,0,0-0.1,0c1.5-0.3,2.6-1.7,2.4-3.2c0-2.6,0.1-5.1,0.1-7.8h-12.5
	c0,2.6,0,5.2,0.1,7.8c-0.1,1.5,0.9,2.9,2.4,3.2c0,0-0.1,0-0.1,0c-1.1,0-3.6,0-7.4,0h-0.1c1.5-0.3,2.6-1.7,2.4-3.2
	c0.2-4.3,0.2-9.7,0-16.2c0.2-1.4-0.8-2.8-2.3-3l0,0c1.2,0,2.4,0.1,3.7,0.1c1.2,0,2.4,0,3.6-0.1l0,0c-1.4,0.2-2.4,1.5-2.3,3l-0.1,6.8
	h12.5c0-0.3,0-2.6-0.1-6.8c0.2-1.4-0.8-2.8-2.3-3l0,0c1.2,0.1,2.4,0.1,3.6,0.1c1.2,0,2.4,0,3.6-0.1l0,0c-1.4,0.2-2.4,1.6-2.3,3
	c-0.1,6.6-0.1,12,0,16.2C186.3,41.6,187.4,43,189,43.2z"/>
<path class="st1" d="M220.7,32c0,3-1.2,6-3.4,8.1c-4.3,4.5-11.5,4.6-16,0.2c-0.1-0.1-0.1-0.1-0.2-0.2c-4.5-4.5-4.5-11.8,0-16.3
	c4.4-4.5,11.5-4.6,16-0.2c0.1,0.1,0.1,0.1,0.2,0.2C219.5,26,220.7,29,220.7,32z M217.4,31c-0.3-2.5-1.3-4.8-3-6.6
	c-1.4-1.7-3.5-2.7-5.7-2.7c-2.4,0-4.6,1.2-5.9,3.2c-1.3,1.9-2,4.2-2,6.6c0,2.6,0.8,5.1,2.4,7.2c1.5,2.1,3.9,3.4,6.5,3.4
	c2.3,0.1,4.5-1.1,5.8-3c1.3-1.9,2-4.1,2-6.4C217.6,32.2,217.5,31.6,217.4,31z"/>
<path class="st1" d="M258.6,43.2C258.6,43.2,258.6,43.2,258.6,43.2c-0.6,0-1.9,0-4.1,0s-3.4,0-3.6,0l0,0c0.7-0.1,1.4-0.6,1.7-1.2
	c0.4-0.7,0.6-1.5,0.6-2.3c0-3-0.1-7-0.4-11.9c-2.9,5.4-5.7,10.7-8.4,16c-1.8-3.5-4.7-8.8-8.6-16c0,0.3,0,2.4-0.2,6.2
	c-0.1,2.5-0.1,4.5-0.1,6.1c0,1.9,0.8,2.9,2.1,3.1c0,0,0,0-0.1,0c-2.1-0.1-4.2-0.1-6.3,0h-0.1c0.7-0.1,1.4-0.6,1.8-1.2
	c0.4-0.6,0.6-1.3,0.7-2.1c0.5-6.4,0.8-13.2,1-20.3c2.5,4.7,4.2,7.8,5.1,9.6c1.9,3.5,3.6,6.7,5.3,9.6c3.2-5.5,6.6-11.8,10.2-19
	c0.2,7.7,0.5,14.5,1,20.2C256.3,41.8,257.2,42.9,258.6,43.2z"/>
<path class="st1" d="M285.6,36.9c0.1,0,0,0.6-0.4,1.8c-0.4,1.1-0.6,1.9-0.8,2.3c-0.2,0.6-0.5,1.1-0.8,1.7c-0.3,0.4-0.8,0.6-1.3,0.6
	h-15h-0.1c1.5-0.3,2.6-1.7,2.4-3.2c0.2-4.1,0.2-9.5,0-16.2c0.2-1.4-0.8-2.8-2.3-3l0,0h13.5c1.6,0,2.5,0,2.7,0
	c-0.2,1.7-0.2,3.3-0.1,5l0,0c-0.1-1.1-0.7-2.1-1.6-2.6c-0.8-0.6-1.9-0.9-2.9-1c-2.4,0-4.4,0-6.2,0c-0.3,0-0.4,0.1-0.4,0.3v8h7.2
	c0.9,0.1,1.9-0.2,2.7-0.6c-0.2,1.5-0.2,3.1-0.1,4.6v0.1c0-0.8-0.5-1.6-1.2-2c-0.6-0.4-1.3-0.6-2-0.6c-2.7,0-4.9,0-6.7,0V40
	c0,1.1,0.5,1.7,1.5,1.8c1.9,0.2,3.9,0.1,5.8-0.2C283.1,40.8,285,39.3,285.6,36.9z"/>
<path class="st1" d="M302.1,43.4c-1.6-0.1-3.1-0.4-4.5-0.9c-1-0.3-1.7-1.1-1.9-2c-0.1-0.7-0.3-2.5-0.5-5.7c0-0.3,0-0.4,0.1-0.4
	c0,1.2,0.3,2.3,0.9,3.3c0.6,1.1,1.4,2,2.4,2.7c1.4,1,3,1.5,4.7,1.4c1.2,0,2.3-0.3,3.3-0.9c1-0.7,1.7-1.7,1.7-2.9c0-0.2,0-0.3,0-0.5
	c0-1.2-0.7-2.3-1.8-2.8c-1.3-0.7-2.6-1.3-4-1.7c-1.5-0.5-2.9-1.2-4.1-2c-1.3-1-2.1-2.6-2-4.2c0-1,0.3-2,0.8-2.9
	c0.7-1,1.7-1.9,2.9-2.3c1.2-0.5,2.6-0.8,3.9-0.8c2.3,0,4.5,0.3,6.7,0.9c0,1.7-0.1,3.6-0.2,5.6c0,0.1,0,0.1,0,0.1
	c0-1.6-0.9-3-2.2-3.9c-1.2-0.9-2.7-1.4-4.2-1.3c-1,0-2,0.2-2.9,0.7c-0.9,0.4-1.6,1.1-2.1,1.9c-0.2,0.4-0.2,0.8-0.2,1.2
	c0,1,0.4,2,1.2,2.6c1,0.7,2.1,1.3,3.2,1.7c1.2,0.4,2.5,0.9,3.7,1.3c2.6,1.1,3.9,2.7,3.9,4.8c0,2.2-1.1,4.2-3,5.3
	C306.4,42.8,304.3,43.5,302.1,43.4z"/>
<path class="st1" d="M126.5,58.2L126.5,58.2c0-1.6,0.6-3.2,1.8-4.3c2.5-2.4,6.5-2.4,9,0c1.2,1.1,1.8,2.7,1.8,4.3l0,0
	c0,1.6-0.6,3.1-1.7,4.3c-2.5,2.4-6.5,2.4-9,0C127.2,61.3,126.5,59.8,126.5,58.2z M135.9,58.2L135.9,58.2c0-0.8-0.3-1.6-0.8-2.3
	c-0.6-0.6-1.4-1-2.2-0.9c-0.8,0-1.7,0.3-2.2,0.9c-0.6,0.6-0.8,1.4-0.8,2.2l0,0c0,0.8,0.3,1.6,0.8,2.3c0.6,0.6,1.4,1,2.2,1
	c0.8,0,1.7-0.3,2.2-0.9C135.6,59.8,135.9,59,135.9,58.2z"/>
<path class="st1" d="M143.1,58.2L143.1,58.2c0-3.3,2.6-6,5.9-6.1c0.1,0,0.1,0,0.2,0c1.8-0.1,3.5,0.6,4.7,2l-2,2.2
	c-0.7-0.8-1.7-1.3-2.7-1.3c-0.8,0-1.5,0.3-2,0.9c-0.5,0.6-0.8,1.4-0.8,2.2l0,0c0,0.8,0.3,1.7,0.8,2.3c0.5,0.6,1.3,1,2.2,0.9
	c1,0,2-0.5,2.7-1.2l1.9,2c-1.2,1.4-2.9,2.2-4.8,2.1c-1.6,0-3.2-0.6-4.3-1.8C143.7,61.3,143.1,59.8,143.1,58.2z"/>
<path class="st1" d="M157.4,58.2L157.4,58.2c0-1.6,0.5-3.1,1.6-4.3c1.1-1.2,2.6-1.8,4.2-1.8c1.7-0.1,3.3,0.6,4.3,1.9
	c0.9,1.3,1.4,2.8,1.3,4.4c0,0.2,0,0.5,0,0.9h-8.1c0.2,1.4,1.4,2.4,2.8,2.3c1.1,0,2.1-0.4,2.8-1.2l1.9,1.7c-1.1,1.5-2.9,2.3-4.8,2.2
	c-1.6,0.1-3.2-0.5-4.4-1.7C158,61.4,157.4,59.8,157.4,58.2z M165.6,57.2c-0.2-1.7-1-2.5-2.5-2.5s-2.2,0.8-2.5,2.5H165.6z"/>
<path class="st1" d="M172.8,60.6L172.8,60.6c-0.1-1.1,0.5-2.2,1.3-2.8c1-0.7,2.2-1,3.4-0.9c1,0,1.9,0.2,2.9,0.5v-0.2
	c0-1.3-0.8-2.1-2.5-2.1c-1.1,0-2.2,0.2-3.2,0.6l-0.9-2.6c1.4-0.6,3-1,4.5-0.9c1.4-0.1,2.9,0.4,3.9,1.3c0.9,1,1.4,2.4,1.3,3.7v6.7
	h-3.2v-1.3c-0.9,1-2.2,1.5-3.5,1.5c-1,0-2-0.3-2.8-0.9C173.2,62.6,172.8,61.6,172.8,60.6z M180.4,59.8v-0.6
	c-0.7-0.3-1.4-0.4-2.1-0.4c-1.5,0-2.3,0.5-2.3,1.6l0,0c0,0.9,0.6,1.3,1.8,1.3c0.7,0,1.3-0.2,1.9-0.6
	C180.1,60.9,180.4,60.3,180.4,59.8z"/>
<path class="st1" d="M188.6,52.3h3.3v1.7c0.8-1.1,2-1.8,3.4-1.9c1.1-0.1,2.2,0.4,2.9,1.2c0.7,0.9,1.1,2,1,3.2v7.5h-3.4v-6.5
	c0-1.6-0.7-2.4-2-2.4c-1.3,0-2.1,0.8-2.1,2.4v6.5h-3.2V52.3z"/>
<path class="st1" d="M213,52.3h3.3v1.7c0.8-1.2,2.2-1.9,3.6-1.9c1.4,0,2.7,0.5,3.7,1.6c1.1,1.2,1.7,2.8,1.6,4.5l0,0
	c0.1,1.6-0.5,3.3-1.6,4.5c-1,1-2.3,1.6-3.7,1.6c-1.4,0-2.8-0.6-3.6-1.8v5H213V52.3z M221.9,58.1L221.9,58.1c0-0.9-0.3-1.7-0.8-2.3
	c-0.5-0.6-1.2-0.9-2-0.9c-0.8,0-1.5,0.3-2,0.9c-0.6,0.6-0.9,1.5-0.8,2.3l0,0c0,0.9,0.3,1.7,0.8,2.3c0.5,0.6,1.2,0.9,2,0.9
	c0.8,0,1.5-0.3,2-0.9C221.7,59.8,222,59,221.9,58.1z"/>
<path class="st1" d="M229.2,60.6L229.2,60.6c-0.1-1.1,0.4-2.2,1.3-2.8c1-0.7,2.2-1,3.4-0.9c1,0,1.9,0.2,2.8,0.5v-0.2
	c0-1.3-0.8-2.1-2.5-2.1c-1.1,0-2.2,0.2-3.2,0.6l-0.8-2.5c1.4-0.6,3-1,4.5-0.9c1.4-0.1,2.9,0.4,3.9,1.3c0.9,1,1.4,2.4,1.3,3.7V64
	h-3.2v-1.3c-0.9,1-2.2,1.5-3.5,1.5c-1,0-2-0.3-2.8-0.9C229.6,62.6,229.1,61.6,229.2,60.6z M236.8,59.8v-0.6
	c-0.7-0.3-1.4-0.4-2.1-0.4c-1.5,0-2.3,0.5-2.3,1.6l0,0c0,0.9,0.6,1.3,1.8,1.3c0.7,0,1.3-0.2,1.9-0.6
	C236.5,60.9,236.7,60.4,236.8,59.8z"/>
<path class="st1" d="M244.9,52.3h3.3v2.4c0.5-1.6,2-2.7,3.7-2.6v3.5h-0.2c-2.4,0-3.5,1.3-3.5,4v4.3h-3.3V52.3z"/>
<path class="st1" d="M256.2,48h3.3v8.5l3.9-4.2h3.9l-4.4,4.7l4.6,7.1h-3.8l-3-4.8l-1.2,1.2V64h-3.3L256.2,48z"/>
</svg>
